<?xml version="1.0" standalone="no"?>
<!DOCTYPE svg PUBLIC "-//W3C//DTD SVG 20010904//EN"
 "http://www.w3.org/TR/2001/REC-SVG-20010904/DTD/svg10.dtd">
<svg version="1.0" xmlns="http://www.w3.org/2000/svg"
 width="225.000000pt" height="225.000000pt" viewBox="0 0 225.000000 225.000000"
 preserveAspectRatio="xMidYMid meet">

<g transform="translate(0.000000,225.000000) scale(0.100000,-0.100000)"
fill="#000000" stroke="none">
<path d="M90 1125 l0 -1085 1035 0 1035 0 0 930 c0 577 -4 930 -9 930 -6 0
-161 -170 -347 -377 -185 -208 -344 -379 -353 -381 -25 -4 -376 365 -363 381
68 89 125 157 131 157 5 0 57 -52 116 -116 l108 -115 22 23 c29 31 525 705
532 724 4 12 -125 14 -951 14 l-956 0 0 -1085z m733 55 c63 -20 163 -76 171
-96 3 -7 -18 -42 -45 -79 l-50 -66 -32 21 c-69 46 -121 63 -203 68 -92 5 -140
-12 -150 -52 -16 -65 13 -86 184 -131 147 -39 201 -62 250 -109 53 -49 73 -97
73 -176 1 -117 -52 -199 -158 -247 -165 -76 -406 -44 -538 70 l-38 33 42 63
c23 34 48 64 55 67 7 3 36 -11 64 -30 138 -92 335 -95 372 -5 17 39 2 72 -42
95 -18 9 -90 32 -159 50 -175 45 -232 76 -276 151 -14 24 -27 65 -30 96 -19
184 156 319 387 300 36 -3 91 -13 123 -23z m772 -229 c24 -11 60 -32 79 -46
73 -55 130 -186 124 -282 l-3 -48 -249 -3 c-220 -2 -247 -4 -242 -18 3 -9 6
-20 6 -24 0 -18 66 -83 97 -96 57 -24 143 -18 207 15 l58 29 34 -47 c18 -25
34 -54 34 -63 0 -12 -20 -28 -57 -47 -205 -103 -444 -38 -533 144 -22 44 -25
63 -25 160 0 101 2 114 28 163 47 89 134 158 231 183 49 13 161 2 211 -20z"/>
<path d="M1382 813 c-37 -18 -67 -56 -77 -96 l-7 -27 161 0 c180 0 182 1 141
68 -41 68 -141 93 -218 55z"/>
</g>
</svg>
