<?xml version="1.0" standalone="no"?>
<!DOCTYPE svg PUBLIC "-//W3C//DTD SVG 20010904//EN"
 "http://www.w3.org/TR/2001/REC-SVG-20010904/DTD/svg10.dtd">
<svg version="1.0" xmlns="http://www.w3.org/2000/svg"
 width="640.000000pt" height="299.000000pt" viewBox="0 0 640.000000 299.000000"
 preserveAspectRatio="xMidYMid meet">

<g transform="translate(0.000000,299.000000) scale(0.100000,-0.100000)"
fill="#000000" stroke="none">
<path d="M0 1495 l0 -1495 3200 0 3200 0 0 1495 0 1495 -2337 -1 c-1286 -1
-2306 -5 -2268 -9 162 -17 193 -21 245 -31 260 -50 442 -118 567 -213 71 -54
110 -100 142 -169 l22 -48 0 -995 0 -995 -24 -52 c-96 -209 -452 -368 -906
-405 -113 -9 -393 -9 -506 1 -352 29 -664 136 -823 280 -42 39 -89 121 -101
177 -9 41 -11 306 -9 1025 l3 970 28 57 c53 108 202 220 372 280 187 67 297
89 567 118 40 4 -251 8 -649 9 l-723 1 0 -1495z m4926 580 c141 -43 242 -125
319 -260 59 -104 79 -190 79 -340 -1 -124 -14 -192 -54 -265 -10 -19 -25 -49
-33 -66 -22 -47 -129 -155 -189 -191 -29 -18 -82 -43 -118 -56 l-65 -23 1 -72
0 -72 -108 0 -108 0 0 285 0 285 100 0 100 0 0 -80 c0 -48 4 -80 10 -80 55 0
138 77 183 170 30 61 32 72 32 175 0 104 -2 114 -32 175 -45 93 -124 171 -198
199 -105 40 -247 13 -325 -62 -80 -77 -106 -118 -135 -221 -41 -140 16 -298
134 -381 l41 -28 0 -128 c0 -71 -4 -129 -9 -129 -32 0 -163 76 -225 130 -43
38 -127 148 -141 183 -6 18 -19 49 -29 70 -41 92 -40 287 3 409 60 173 223
330 394 379 99 28 270 25 373 -6z m-966 -93 l0 -107 -177 0 c-160 0 -181 -2
-212 -20 -75 -44 -66 -77 49 -169 41 -34 85 -71 98 -83 12 -13 25 -23 29 -23
9 0 64 -48 131 -113 187 -183 168 -417 -43 -520 -78 -39 -141 -47 -348 -47
l-192 0 0 116 0 116 150 -7 c170 -8 275 5 307 37 37 37 4 83 -152 213 -240
201 -314 314 -315 482 0 64 3 76 30 115 36 50 114 93 196 107 30 5 143 9 252
10 l197 1 0 -108z m1735 -300 c1 -391 2 -410 21 -448 31 -57 63 -72 182 -80
l102 -7 0 -124 0 -125 -182 4 c-202 4 -227 10 -287 69 -19 19 -44 54 -55 79
-20 43 -21 62 -24 543 l-3 497 123 0 123 0 0 -408z"/>
<path d="M1395 2774 c-131 -9 -320 -43 -440 -81 -220 -68 -362 -175 -341 -256
21 -86 220 -194 456 -247 262 -59 645 -71 890 -29 36 7 74 13 85 15 237 41
475 159 514 253 38 90 -133 212 -394 280 -79 21 -219 48 -298 57 -60 7 -401
12 -472 8z"/>
<path d="M612 1961 l3 -180 35 -36 c77 -80 196 -135 397 -184 65 -16 159 -35
208 -42 121 -18 530 -18 660 0 198 26 405 88 519 155 53 31 114 91 127 124 8
22 13 342 5 342 -2 0 -46 -20 -97 -44 -242 -114 -520 -166 -884 -166 -354 0
-696 66 -900 175 -37 19 -69 35 -71 35 -3 0 -4 -81 -2 -179z"/>
<path d="M610 1337 c0 -189 6 -208 73 -260 44 -33 142 -85 188 -99 22 -6 39
-14 39 -18 0 -4 6 -7 13 -7 6 0 48 -10 92 -21 295 -78 672 -89 1015 -30 228
39 455 142 514 232 25 39 26 45 26 203 0 108 -4 163 -11 163 -5 0 -29 -10 -52
-23 -100 -55 -272 -111 -432 -142 -122 -24 -346 -45 -481 -45 -107 0 -404 23
-444 35 -8 2 -31 7 -50 10 -126 21 -300 77 -404 129 l-86 43 0 -170z"/>
<path d="M612 714 l3 -166 53 -49 c49 -45 164 -109 237 -131 112 -34 239 -64
315 -74 25 -3 72 -10 105 -15 125 -19 476 -10 640 17 240 39 429 107 534 192
63 51 71 78 71 242 0 77 -2 140 -5 140 -2 0 -44 -20 -92 -44 -48 -24 -110 -50
-138 -59 -150 -45 -202 -58 -320 -79 -115 -20 -164 -23 -420 -23 -288 0 -339
4 -525 42 -166 33 -350 98 -426 149 l-35 24 3 -166z"/>
</g>
</svg>
